<?xml version="1.0" encoding="UTF-8"?>
<!DOCTYPE svg PUBLIC "-//W3C//DTD SVG 1.1//EN" "http://www.w3.org/Graphics/SVG/1.1/DTD/svg11.dtd">
<!-- Creator: CorelDRAW -->
<svg xmlns="http://www.w3.org/2000/svg" xml:space="preserve" width="8.4428in" height="5.5024in" style="shape-rendering:geometricPrecision; text-rendering:geometricPrecision; image-rendering:optimizeQuality; fill-rule:evenodd; clip-rule:evenodd"
viewBox="0 0 8.48247 5.52825"
 xmlns:xlink="http://www.w3.org/1999/xlink">
 <defs>
  <style type="text/css">
   <![CDATA[
    .fil1 {fill:#0093DD}
    .fil0 {fill:white}
    .fil2 {fill:url(#id0)}
   ]]>
  </style>
  <linearGradient id="id0" gradientUnits="userSpaceOnUse" x1="4.23695" y1="2.68368" x2="8.48247" y2="2.68368">
   <stop offset="0" style="stop-color:#3342B5"/>
   <stop offset="1" style="stop-color:#0093DD"/>
  </linearGradient>
 </defs>
 <g id="Layer_x0020_1">
  <metadata id="CorelCorpID_0Corel-Layer"/>
  <g id="_94318744">
   <rect id="_94317808" class="fil0" width="8.47391" height="5.52825"/>
   <circle id="_94316560" class="fil1" cx="5.48085" cy="1.63082" r="0.652292"/>
   <path id="_94322704" class="fil1" d="M8.44022 4.49693l-0.379333 0.374017c-0.046141,0.0383209 -0.0864436,0.0784416 -0.132929,0.113301l-0.180205 0.121549c-0.100031,0.0507373 -0.197882,0.109651 -0.300084,0.152216 -0.0670774,0.0270121 -0.136769,0.0435343 -0.207106,0.0607368 -0.0522799,0.0143268 -0.104754,0.0249078 -0.157821,0.0323639 -0.0220757,0.00378542 -0.0449978,0.00722671 -0.068893,0.0102606 -0.0474146,0.00602028 -0.0911665,0.00795452 -0.131568,0.00632485 -0.165071,0.0165617 -0.323782,-0.00320791 -0.46258,-0.0527229l-0.000241286 -2.76885e-005 4.74661e-005 -4.35106e-005c-0.238936,-0.0853005 -0.418793,-0.258809 -0.470139,-0.487223 -0.0896396,-0.398754 0.246131,-0.813944 0.749813,-0.92717 0.393074,-0.088366 0.772427,0.0332618 0.962687,0.280461l0.778352 -0.710421 0 1.02638z"/>
   <path id="_94324144" class="fil2" d="M7.73648 4.44934c-0.334121,0.536212 -0.928978,0.893228 -1.60715,0.893228 -1.04495,0 -1.89238,-0.847419 -1.89238,-1.89238 0,-0.660724 0.338888,-1.24237 0.852206,-1.58086l-9.88876e-005 -9.49321e-005 1.83622 -1.84443 1.55719 0.0014398 -0.0433602 3.70978 -0.702525 0.713411 -0.000102843 -0.000102843z"/>
  </g>
 </g>
</svg>
